<?xml version="1.0" encoding="UTF-8"?>
<svg version="1.1" xmlns="http://www.w3.org/2000/svg" width="512" height="512">
<path d="M0 0 C-1.22082126 6.79740013 -2.8764457 13.41561987 -4.71582031 20.0703125 C-21.1455262 79.52133513 -34.57748122 153.21314449 -3.3125 210.1875 C2.52460405 220.34053203 12.4698885 232.73494425 23 238 C32.36912631 196.78842025 38.32861999 154.28536495 39 112 C51.27404611 113.46930187 60.88419391 123.31828887 68.29296875 132.62402344 C96.40728021 169.84304653 104.02634694 222.36017909 104.203125 267.78125 C104.20882507 268.95602905 104.21452515 270.13080811 104.22039795 271.34118652 C104.22977572 273.81175863 104.23635286 276.28234283 104.24023438 278.75292969 C104.24990389 282.46312188 104.28098368 286.17275051 104.3125 289.8828125 C104.37625887 304.19109208 103.61664512 317.92460016 101 332 C100.80647949 333.07314453 100.61295898 334.14628906 100.41357422 335.25195312 C99.93740871 337.686982 99.404125 340.09071936 98.8125 342.5 C98.6052832 343.34981445 98.39806641 344.19962891 98.18457031 345.07519531 C88.459479 383.06862952 65.59726354 417.11163879 32 438 C13.14155363 449.11377635 -6.59429811 456.56477188 -28 461 C-29.15338867 461.2477417 -29.15338867 461.2477417 -30.33007812 461.50048828 C-57.88970141 467.13238932 -90.68629556 466.655164 -118 460 C-118.9993457 459.75862305 -119.99869141 459.51724609 -121.02832031 459.26855469 C-162.95311133 448.78405992 -200.27792906 424.29863757 -223 387 C-244.78073141 349.87343978 -255.7040731 301.38226591 -245.3125 258.7578125 C-244.88368945 257.16950349 -244.44600269 255.58356737 -244 254 C-243.76925781 253.15405273 -243.53851563 252.30810547 -243.30078125 251.43652344 C-236.65260069 227.73699087 -224.81605506 207.86112062 -208 190 C-207.40832031 189.35546875 -206.81664062 188.7109375 -206.20703125 188.046875 C-204.86962128 186.63351335 -203.44290298 185.30548365 -202 184 C-201.01 184 -200.02 184 -199 184 C-198.96036133 184.59200195 -198.92072266 185.18400391 -198.87988281 185.79394531 C-196.79618792 215.66791359 -192.17229799 246.9676534 -170 269 C-169.96036133 268.05608398 -169.92072266 267.11216797 -169.87988281 266.13964844 C-167.82099649 218.53853071 -160.44576402 172.06616782 -139 129 C-138.57074219 128.13052734 -138.14148438 127.26105469 -137.69921875 126.36523438 C-131.89294258 114.69411729 -125.6092542 103.58883825 -118 93 C-117.26136719 91.96746094 -116.52273437 90.93492188 -115.76171875 89.87109375 C-110.19125742 82.28220593 -104.18773491 75.08772907 -98 68 C-97.55978516 67.4951709 -97.11957031 66.9903418 -96.66601562 66.47021484 C-92.07356664 61.23420518 -87.42693142 56.25670735 -82.0859375 51.78125 C-80.59686352 50.50968121 -79.14729398 49.1912479 -77.7265625 47.84375 C-58.27079356 29.40566743 -35.10380372 16.23969273 -11.34960938 4.1953125 C-9.39527231 3.20108616 -7.45371533 2.18178658 -5.515625 1.15625 C-3 0 -3 0 0 0 Z " fill="#EB423E" transform="translate(328,24)"/>
<path d="M0 0 C1.20684269 3.62052808 0.70613989 5.49753737 0.0625 9.25 C-3.51403124 33.31002898 -1.05334725 58.42690716 8 81 C8.37898438 81.95003906 8.75796875 82.90007812 9.1484375 83.87890625 C14.07909133 94.77180461 22.06199923 104.39867099 32 111 C34.68677511 104.87807214 35.45128321 98.4328447 36.5 91.875 C36.66524673 90.85803543 36.66524673 90.85803543 36.83383179 89.82052612 C39.0712446 75.93258082 40.2627179 62.04979965 41 48 C53.60492101 54.04274373 60.1522161 66.24693665 65.125 78.8515625 C70.39560336 94.45748965 72.66768929 111.58385077 73 128 C73.03109863 129.08200684 73.06219727 130.16401367 73.09423828 131.27880859 C73.88448454 161.1294675 70.79332556 190.88150341 49.39526367 213.69873047 C31.39580213 232.08413353 6.92164371 239.64811017 -18.25634766 240.23242188 C-47.13763759 240.47204539 -73.00335535 232.82913986 -94.1875 212.3125 C-111.46343771 194.95099686 -119.01884031 170.20899688 -119.375 146.1875 C-119.32696976 127.22267151 -112.75332244 107.30372634 -100 93 C-98.36377199 91.62948423 -96.70395566 90.28533679 -95 89 C-94.93530518 89.65895264 -94.87061035 90.31790527 -94.80395508 90.99682617 C-93.04015379 108.33658256 -91.17404785 121.18837482 -80 135 C-79.82984375 134.12077881 -79.6596875 133.24155762 -79.484375 132.33569336 C-72.9556107 99.0342204 -63.65926157 66.6145463 -43 39 C-42.3090625 38.06929688 -41.618125 37.13859375 -40.90625 36.1796875 C-29.47461456 21.54890035 -15.99764183 9.39638442 0 0 Z " fill="#FED23A" transform="translate(279,248)"/>
<path d="M0 0 C-0.50258629 24.62672845 -8.86996245 52.09761225 -25 71 C-31.96808091 77.23535488 -38.59317372 80.49509612 -48 80 C-49.17034906 57.11317387 -41.50303071 33.294589 -26.40234375 15.94140625 C-19.82582205 8.96745446 -10.19696518 0 0 0 Z " fill="#EB413E" transform="translate(128,120)"/>
<path d="M0 0 C12.4445588 1.52344894 22.34015925 10.58933851 30 20 C42.6686577 36.88679344 49.07353803 59.00636736 48 80 C39.79182425 80.76001627 34.02041344 77.93398111 27.44140625 73.1328125 C11.68595232 59.36884795 5.65272598 35.96995117 1.625 16.25 C1.45718018 15.42870605 1.28936035 14.60741211 1.11645508 13.76123047 C0.22496883 9.0897078 -0.16526124 4.75443889 0 0 Z " fill="#EB423E" transform="translate(376,40)"/>
</svg>
